<mxfile host="app.diagrams.net" modified="2023-11-27T21:50:20.963Z" agent="Mozilla/5.0 (Windows NT 10.0; Win64; x64) AppleWebKit/537.36 (KHTML, like Gecko) Chrome/119.0.0.0 Safari/537.36" etag="Q6VN9MMJcLTR0K9xhESE" version="22.1.4" type="device">
  <diagram id="C5RBs43oDa-KdzZeNtuy" name="Page-1">
    <mxGraphModel dx="2200" dy="1305" grid="1" gridSize="10" guides="1" tooltips="1" connect="1" arrows="1" fold="1" page="1" pageScale="1" pageWidth="827" pageHeight="1169" math="0" shadow="0">
      <root>
        <mxCell id="WIyWlLk6GJQsqaUBKTNV-0" />
        <mxCell id="WIyWlLk6GJQsqaUBKTNV-1" parent="WIyWlLk6GJQsqaUBKTNV-0" />
        <mxCell id="os5mAOQlzmJS6STsqDt5-47" value="Use" style="endArrow=open;endSize=12;dashed=1;html=1;rounded=0;entryX=1;entryY=0.5;entryDx=0;entryDy=0;exitX=0.5;exitY=0;exitDx=0;exitDy=0;" edge="1" parent="WIyWlLk6GJQsqaUBKTNV-1" source="os5mAOQlzmJS6STsqDt5-8" target="os5mAOQlzmJS6STsqDt5-30">
          <mxGeometry width="160" relative="1" as="geometry">
            <mxPoint x="840" y="260" as="sourcePoint" />
            <mxPoint x="926.4000000000001" y="367.9759999999999" as="targetPoint" />
            <Array as="points">
              <mxPoint x="830" y="295" />
            </Array>
          </mxGeometry>
        </mxCell>
        <mxCell id="os5mAOQlzmJS6STsqDt5-8" value="&amp;lt;&amp;lt;abstract&amp;gt;&amp;gt;&lt;br&gt;Pacote" style="swimlane;fontStyle=1;align=center;verticalAlign=top;childLayout=stackLayout;horizontal=1;startSize=40;horizontalStack=0;resizeParent=1;resizeParentMax=0;resizeLast=0;collapsible=1;marginBottom=0;whiteSpace=wrap;html=1;" vertex="1" parent="WIyWlLk6GJQsqaUBKTNV-1">
          <mxGeometry x="750" y="410" width="160" height="184" as="geometry">
            <mxRectangle x="540" y="240" width="120" height="40" as="alternateBounds" />
          </mxGeometry>
        </mxCell>
        <mxCell id="os5mAOQlzmJS6STsqDt5-9" value="+ origem: String&lt;br&gt;+ destino: String&lt;br&gt;+ dataDeIda: String&lt;br&gt;+ dataDeVolta: String&lt;br&gt;+ numeroDePessoas: int&lt;br&gt;+ companhiaAerea: String&lt;br&gt;+ preco: String" style="text;strokeColor=none;fillColor=none;align=left;verticalAlign=top;spacingLeft=4;spacingRight=4;overflow=hidden;rotatable=0;points=[[0,0.5],[1,0.5]];portConstraint=eastwest;whiteSpace=wrap;html=1;" vertex="1" parent="os5mAOQlzmJS6STsqDt5-8">
          <mxGeometry y="40" width="160" height="110" as="geometry" />
        </mxCell>
        <mxCell id="os5mAOQlzmJS6STsqDt5-10" value="" style="line;strokeWidth=1;fillColor=none;align=left;verticalAlign=middle;spacingTop=-1;spacingLeft=3;spacingRight=3;rotatable=0;labelPosition=right;points=[];portConstraint=eastwest;strokeColor=inherit;" vertex="1" parent="os5mAOQlzmJS6STsqDt5-8">
          <mxGeometry y="150" width="160" height="8" as="geometry" />
        </mxCell>
        <mxCell id="os5mAOQlzmJS6STsqDt5-11" value="+ hotel(diasDeEstadia): int" style="text;strokeColor=none;fillColor=none;align=left;verticalAlign=top;spacingLeft=4;spacingRight=4;overflow=hidden;rotatable=0;points=[[0,0.5],[1,0.5]];portConstraint=eastwest;whiteSpace=wrap;html=1;" vertex="1" parent="os5mAOQlzmJS6STsqDt5-8">
          <mxGeometry y="158" width="160" height="26" as="geometry" />
        </mxCell>
        <mxCell id="os5mAOQlzmJS6STsqDt5-36" style="edgeStyle=orthogonalEdgeStyle;rounded=0;orthogonalLoop=1;jettySize=auto;html=1;entryX=0;entryY=0.5;entryDx=0;entryDy=0;" edge="1" parent="WIyWlLk6GJQsqaUBKTNV-1" source="os5mAOQlzmJS6STsqDt5-13" target="os5mAOQlzmJS6STsqDt5-11">
          <mxGeometry relative="1" as="geometry" />
        </mxCell>
        <mxCell id="os5mAOQlzmJS6STsqDt5-13" value="PacoteAventura" style="swimlane;fontStyle=1;align=center;verticalAlign=top;childLayout=stackLayout;horizontal=1;startSize=26;horizontalStack=0;resizeParent=1;resizeParentMax=0;resizeLast=0;collapsible=1;marginBottom=0;whiteSpace=wrap;html=1;" vertex="1" parent="WIyWlLk6GJQsqaUBKTNV-1">
          <mxGeometry x="570" y="650" width="160" height="94" as="geometry" />
        </mxCell>
        <mxCell id="os5mAOQlzmJS6STsqDt5-14" value="+ trilha: boolean&lt;br&gt;+ escalada: boolean" style="text;strokeColor=none;fillColor=none;align=left;verticalAlign=top;spacingLeft=4;spacingRight=4;overflow=hidden;rotatable=0;points=[[0,0.5],[1,0.5]];portConstraint=eastwest;whiteSpace=wrap;html=1;" vertex="1" parent="os5mAOQlzmJS6STsqDt5-13">
          <mxGeometry y="26" width="160" height="34" as="geometry" />
        </mxCell>
        <mxCell id="os5mAOQlzmJS6STsqDt5-15" value="" style="line;strokeWidth=1;fillColor=none;align=left;verticalAlign=middle;spacingTop=-1;spacingLeft=3;spacingRight=3;rotatable=0;labelPosition=right;points=[];portConstraint=eastwest;strokeColor=inherit;" vertex="1" parent="os5mAOQlzmJS6STsqDt5-13">
          <mxGeometry y="60" width="160" height="8" as="geometry" />
        </mxCell>
        <mxCell id="os5mAOQlzmJS6STsqDt5-16" value="+ hotel(diasDeEstadia): int" style="text;strokeColor=none;fillColor=none;align=left;verticalAlign=top;spacingLeft=4;spacingRight=4;overflow=hidden;rotatable=0;points=[[0,0.5],[1,0.5]];portConstraint=eastwest;whiteSpace=wrap;html=1;" vertex="1" parent="os5mAOQlzmJS6STsqDt5-13">
          <mxGeometry y="68" width="160" height="26" as="geometry" />
        </mxCell>
        <mxCell id="os5mAOQlzmJS6STsqDt5-37" style="edgeStyle=orthogonalEdgeStyle;rounded=0;orthogonalLoop=1;jettySize=auto;html=1;entryX=0.5;entryY=1;entryDx=0;entryDy=0;" edge="1" parent="WIyWlLk6GJQsqaUBKTNV-1" source="os5mAOQlzmJS6STsqDt5-17" target="os5mAOQlzmJS6STsqDt5-8">
          <mxGeometry relative="1" as="geometry">
            <mxPoint x="830" y="610" as="targetPoint" />
          </mxGeometry>
        </mxCell>
        <mxCell id="os5mAOQlzmJS6STsqDt5-17" value="PacoteCultura" style="swimlane;fontStyle=1;align=center;verticalAlign=top;childLayout=stackLayout;horizontal=1;startSize=26;horizontalStack=0;resizeParent=1;resizeParentMax=0;resizeLast=0;collapsible=1;marginBottom=0;whiteSpace=wrap;html=1;" vertex="1" parent="WIyWlLk6GJQsqaUBKTNV-1">
          <mxGeometry x="750" y="650" width="160" height="94" as="geometry" />
        </mxCell>
        <mxCell id="os5mAOQlzmJS6STsqDt5-18" value="+ showMusical: boolean&lt;br&gt;+ museu: boolean" style="text;strokeColor=none;fillColor=none;align=left;verticalAlign=top;spacingLeft=4;spacingRight=4;overflow=hidden;rotatable=0;points=[[0,0.5],[1,0.5]];portConstraint=eastwest;whiteSpace=wrap;html=1;" vertex="1" parent="os5mAOQlzmJS6STsqDt5-17">
          <mxGeometry y="26" width="160" height="34" as="geometry" />
        </mxCell>
        <mxCell id="os5mAOQlzmJS6STsqDt5-19" value="" style="line;strokeWidth=1;fillColor=none;align=left;verticalAlign=middle;spacingTop=-1;spacingLeft=3;spacingRight=3;rotatable=0;labelPosition=right;points=[];portConstraint=eastwest;strokeColor=inherit;" vertex="1" parent="os5mAOQlzmJS6STsqDt5-17">
          <mxGeometry y="60" width="160" height="8" as="geometry" />
        </mxCell>
        <mxCell id="os5mAOQlzmJS6STsqDt5-20" value="+ hotel(diasDeEstadia): int" style="text;strokeColor=none;fillColor=none;align=left;verticalAlign=top;spacingLeft=4;spacingRight=4;overflow=hidden;rotatable=0;points=[[0,0.5],[1,0.5]];portConstraint=eastwest;whiteSpace=wrap;html=1;" vertex="1" parent="os5mAOQlzmJS6STsqDt5-17">
          <mxGeometry y="68" width="160" height="26" as="geometry" />
        </mxCell>
        <mxCell id="os5mAOQlzmJS6STsqDt5-38" style="edgeStyle=orthogonalEdgeStyle;rounded=0;orthogonalLoop=1;jettySize=auto;html=1;entryX=1;entryY=0.5;entryDx=0;entryDy=0;" edge="1" parent="WIyWlLk6GJQsqaUBKTNV-1" source="os5mAOQlzmJS6STsqDt5-21" target="os5mAOQlzmJS6STsqDt5-11">
          <mxGeometry relative="1" as="geometry" />
        </mxCell>
        <mxCell id="os5mAOQlzmJS6STsqDt5-21" value="PacoteRelaxamento" style="swimlane;fontStyle=1;align=center;verticalAlign=top;childLayout=stackLayout;horizontal=1;startSize=26;horizontalStack=0;resizeParent=1;resizeParentMax=0;resizeLast=0;collapsible=1;marginBottom=0;whiteSpace=wrap;html=1;" vertex="1" parent="WIyWlLk6GJQsqaUBKTNV-1">
          <mxGeometry x="930" y="650" width="160" height="94" as="geometry" />
        </mxCell>
        <mxCell id="os5mAOQlzmJS6STsqDt5-22" value="+ hotelFazenda: boolean&lt;br&gt;+ spa: boolean" style="text;strokeColor=none;fillColor=none;align=left;verticalAlign=top;spacingLeft=4;spacingRight=4;overflow=hidden;rotatable=0;points=[[0,0.5],[1,0.5]];portConstraint=eastwest;whiteSpace=wrap;html=1;" vertex="1" parent="os5mAOQlzmJS6STsqDt5-21">
          <mxGeometry y="26" width="160" height="34" as="geometry" />
        </mxCell>
        <mxCell id="os5mAOQlzmJS6STsqDt5-23" value="" style="line;strokeWidth=1;fillColor=none;align=left;verticalAlign=middle;spacingTop=-1;spacingLeft=3;spacingRight=3;rotatable=0;labelPosition=right;points=[];portConstraint=eastwest;strokeColor=inherit;" vertex="1" parent="os5mAOQlzmJS6STsqDt5-21">
          <mxGeometry y="60" width="160" height="8" as="geometry" />
        </mxCell>
        <mxCell id="os5mAOQlzmJS6STsqDt5-24" value="+ hotel(diasDeEstadia): int" style="text;strokeColor=none;fillColor=none;align=left;verticalAlign=top;spacingLeft=4;spacingRight=4;overflow=hidden;rotatable=0;points=[[0,0.5],[1,0.5]];portConstraint=eastwest;whiteSpace=wrap;html=1;" vertex="1" parent="os5mAOQlzmJS6STsqDt5-21">
          <mxGeometry y="68" width="160" height="26" as="geometry" />
        </mxCell>
        <mxCell id="os5mAOQlzmJS6STsqDt5-25" value="UsuÃ¡rio" style="swimlane;fontStyle=0;childLayout=stackLayout;horizontal=1;startSize=26;fillColor=none;horizontalStack=0;resizeParent=1;resizeParentMax=0;resizeLast=0;collapsible=1;marginBottom=0;whiteSpace=wrap;html=1;" vertex="1" parent="WIyWlLk6GJQsqaUBKTNV-1">
          <mxGeometry x="1090" y="410" width="170" height="160" as="geometry" />
        </mxCell>
        <mxCell id="os5mAOQlzmJS6STsqDt5-26" value="+ nome: String" style="text;strokeColor=none;fillColor=none;align=left;verticalAlign=top;spacingLeft=4;spacingRight=4;overflow=hidden;rotatable=0;points=[[0,0.5],[1,0.5]];portConstraint=eastwest;whiteSpace=wrap;html=1;" vertex="1" parent="os5mAOQlzmJS6STsqDt5-25">
          <mxGeometry y="26" width="170" height="26" as="geometry" />
        </mxCell>
        <mxCell id="os5mAOQlzmJS6STsqDt5-27" value="+ rg: String" style="text;strokeColor=none;fillColor=none;align=left;verticalAlign=top;spacingLeft=4;spacingRight=4;overflow=hidden;rotatable=0;points=[[0,0.5],[1,0.5]];portConstraint=eastwest;whiteSpace=wrap;html=1;" vertex="1" parent="os5mAOQlzmJS6STsqDt5-25">
          <mxGeometry y="52" width="170" height="18" as="geometry" />
        </mxCell>
        <mxCell id="os5mAOQlzmJS6STsqDt5-28" value="+ cpf: String&lt;br&gt;+ dataDeNascimento: String&lt;br&gt;+ endereco: String&lt;br&gt;+ email: String&lt;br&gt;+ telefone: String" style="text;strokeColor=none;fillColor=none;align=left;verticalAlign=top;spacingLeft=4;spacingRight=4;overflow=hidden;rotatable=0;points=[[0,0.5],[1,0.5]];portConstraint=eastwest;whiteSpace=wrap;html=1;" vertex="1" parent="os5mAOQlzmJS6STsqDt5-25">
          <mxGeometry y="70" width="170" height="90" as="geometry" />
        </mxCell>
        <mxCell id="os5mAOQlzmJS6STsqDt5-30" value="&lt;p style=&quot;margin:0px;margin-top:4px;text-align:center;&quot;&gt;&lt;i&gt;&amp;lt;&amp;lt;Interface&amp;gt;&amp;gt;&lt;/i&gt;&lt;br&gt;&lt;b&gt;PacotesView&lt;/b&gt;&lt;/p&gt;&lt;hr size=&quot;1&quot;&gt;&lt;p style=&quot;margin:0px;margin-left:4px;&quot;&gt;MostrarPacotesDisponiveis(List&amp;lt;ListaDePacotes&amp;gt;)&lt;/p&gt;" style="verticalAlign=top;align=left;overflow=fill;fontSize=12;fontFamily=Helvetica;html=1;whiteSpace=wrap;" vertex="1" parent="WIyWlLk6GJQsqaUBKTNV-1">
          <mxGeometry x="470" y="260" width="280" height="70" as="geometry" />
        </mxCell>
        <mxCell id="os5mAOQlzmJS6STsqDt5-39" value="&amp;lt;&amp;lt;enumeration&amp;gt;&amp;gt;&lt;br&gt;Destino" style="swimlane;fontStyle=0;childLayout=stackLayout;horizontal=1;startSize=26;fillColor=none;horizontalStack=0;resizeParent=1;resizeParentMax=0;resizeLast=0;collapsible=1;marginBottom=0;whiteSpace=wrap;html=1;" vertex="1" parent="WIyWlLk6GJQsqaUBKTNV-1">
          <mxGeometry x="450" y="430" width="140" height="100" as="geometry" />
        </mxCell>
        <mxCell id="os5mAOQlzmJS6STsqDt5-40" value="PRAIA&lt;br&gt;MONTANHA&lt;br&gt;CIDADE&lt;br&gt;RESORT" style="text;strokeColor=none;fillColor=none;align=left;verticalAlign=top;spacingLeft=4;spacingRight=4;overflow=hidden;rotatable=0;points=[[0,0.5],[1,0.5]];portConstraint=eastwest;whiteSpace=wrap;html=1;" vertex="1" parent="os5mAOQlzmJS6STsqDt5-39">
          <mxGeometry y="26" width="140" height="74" as="geometry" />
        </mxCell>
        <mxCell id="os5mAOQlzmJS6STsqDt5-44" style="edgeStyle=orthogonalEdgeStyle;rounded=0;orthogonalLoop=1;jettySize=auto;html=1;entryX=-0.022;entryY=0.395;entryDx=0;entryDy=0;entryPerimeter=0;" edge="1" parent="WIyWlLk6GJQsqaUBKTNV-1" source="os5mAOQlzmJS6STsqDt5-40" target="os5mAOQlzmJS6STsqDt5-9">
          <mxGeometry relative="1" as="geometry">
            <mxPoint x="680" y="492.9999999999999" as="targetPoint" />
          </mxGeometry>
        </mxCell>
        <mxCell id="os5mAOQlzmJS6STsqDt5-46" value="" style="endArrow=block;startArrow=block;endFill=1;startFill=1;html=1;rounded=0;entryX=-0.023;entryY=0.106;entryDx=0;entryDy=0;entryPerimeter=0;exitX=1.014;exitY=0.373;exitDx=0;exitDy=0;exitPerimeter=0;" edge="1" parent="WIyWlLk6GJQsqaUBKTNV-1" source="os5mAOQlzmJS6STsqDt5-9" target="os5mAOQlzmJS6STsqDt5-28">
          <mxGeometry width="160" relative="1" as="geometry">
            <mxPoint x="920" y="489.62" as="sourcePoint" />
            <mxPoint x="1080" y="489.62" as="targetPoint" />
          </mxGeometry>
        </mxCell>
      </root>
    </mxGraphModel>
  </diagram>
</mxfile>
